<svg xmlns="http://www.w3.org/2000/svg" version="1.1" xmlns:xlink="http://www.w3.org/1999/xlink" xmlns:svgjs="http://svgjs.dev/svgjs" viewBox="0 0 11.162210023146441 10.389513697603743"><g transform="matrix(1,0,0,1,0.8972956854013461,8.427218012202395)"><rect width="11.162210023146441" height="11.162210023146441" x="-0.8972956854013461" y="-8.813566174973747" fill="#ffffff"></rect><g><path d=" M 0.8325 0.7619999999999999 L 0.2235 0.7619999999999999 L 0.09 1.0574999999999999 L 0.0075 1.0574999999999999 L 0.4905 0.00749999999999984 L 0.5670000000000001 0.00749999999999984 L 1.05 1.0574999999999999 L 0.9675 1.0574999999999999 L 0.8325 0.7619999999999999 M 0.804 0.6974999999999999 L 0.528 0.09149999999999991 L 0.2535 0.6974999999999999 L 0.804 0.6974999999999999 M 2.0985256347656254 0.00749999999999984 L 2.0985256347656254 1.0574999999999999 L 2.035525634765625 1.0574999999999999 L 1.3200256347656252 0.14549999999999985 L 1.3200256347656252 1.0574999999999999 L 1.2435256347656252 1.0574999999999999 L 1.2435256347656252 0.00749999999999984 L 1.3080256347656252 0.00749999999999984 L 2.022025634765625 0.9194999999999999 L 2.022025634765625 0.00749999999999984 L 2.0985256347656254 0.00749999999999984 M 3.1170644531250002 0.7619999999999999 L 2.5080644531250003 0.7619999999999999 L 2.374564453125 1.0574999999999999 L 2.292064453125 1.0574999999999999 L 2.775064453125 0.00749999999999984 L 2.8515644531250004 0.00749999999999984 L 3.334564453125 1.0574999999999999 L 3.2520644531250005 1.0574999999999999 L 3.1170644531250002 0.7619999999999999 M 3.0885644531250005 0.6974999999999999 L 2.8125644531250003 0.09149999999999991 L 2.538064453125 0.6974999999999999 L 3.0885644531250005 0.6974999999999999 M 3.6788254394531252 0.9959999999999999 Q 3.5550754394531254 0.9269999999999998 3.4838254394531254 0.8054999999999999 Q 3.4125754394531254 0.6839999999999999 3.4125754394531254 0.5324999999999999 Q 3.4125754394531254 0.3809999999999999 3.4838254394531254 0.25949999999999984 Q 3.5550754394531254 0.1379999999999999 3.6788254394531252 0.06899999999999984 Q 3.8025754394531255 -2.220446049250313e-16 3.957075439453125 -2.220446049250313e-16 Q 4.071075439453125 -2.220446049250313e-16 4.167075439453125 0.03674999999999984 Q 4.263075439453125 0.0734999999999999 4.330575439453125 0.14549999999999985 L 4.282575439453125 0.19499999999999984 Q 4.156575439453126 0.0704999999999999 3.9600754394531252 0.0704999999999999 Q 3.8280754394531256 0.0704999999999999 3.7200754394531255 0.13049999999999984 Q 3.6120754394531254 0.1904999999999999 3.5505754394531253 0.2962499999999999 Q 3.489075439453125 0.4019999999999999 3.489075439453125 0.5324999999999999 Q 3.489075439453125 0.6629999999999998 3.5505754394531253 0.7687499999999998 Q 3.6120754394531254 0.8744999999999998 3.7200754394531255 0.9344999999999999 Q 3.8280754394531256 0.9944999999999999 3.9600754394531252 0.9944999999999999 Q 4.1550754394531255 0.9944999999999999 4.282575439453125 0.8684999999999998 L 4.330575439453125 0.9179999999999999 Q 4.263075439453125 0.9899999999999999 4.166325439453125 1.0274999999999999 Q 4.069575439453125 1.065 3.957075439453125 1.065 Q 3.8025754394531255 1.065 3.6788254394531252 0.9959999999999999 M 4.73405859375 0.9952499999999999 Q 4.60955859375 0.9254999999999999 4.53830859375 0.8039999999999998 Q 4.46705859375 0.6824999999999999 4.46705859375 0.5324999999999999 Q 4.46705859375 0.38249999999999984 4.53830859375 0.2609999999999999 Q 4.60955859375 0.13949999999999985 4.73405859375 0.06974999999999987 Q 4.858558593750001 -2.220446049250313e-16 5.01305859375 -2.220446049250313e-16 Q 5.167558593750001 -2.220446049250313e-16 5.29205859375 0.06899999999999984 Q 5.4165585937500005 0.1379999999999999 5.4878085937500005 0.25949999999999984 Q 5.5590585937500006 0.3809999999999999 5.5590585937500006 0.5324999999999999 Q 5.5590585937500006 0.6839999999999999 5.4878085937500005 0.8054999999999999 Q 5.4165585937500005 0.9269999999999998 5.29205859375 0.9959999999999999 Q 5.167558593750001 1.065 5.01305859375 1.065 Q 4.858558593750001 1.065 4.73405859375 0.9952499999999999 M 5.2515585937500004 0.9344999999999999 Q 5.35805859375 0.8744999999999998 5.419558593750001 0.7687499999999998 Q 5.48105859375 0.6629999999999998 5.48105859375 0.5324999999999999 Q 5.48105859375 0.4019999999999999 5.419558593750001 0.2962499999999999 Q 5.35805859375 0.1904999999999999 5.2515585937500004 0.13049999999999984 Q 5.145058593750001 0.0704999999999999 5.01305859375 0.0704999999999999 Q 4.881058593750001 0.0704999999999999 4.77380859375 0.13049999999999984 Q 4.6665585937500005 0.1904999999999999 4.605058593750001 0.2962499999999999 Q 4.54355859375 0.4019999999999999 4.54355859375 0.5324999999999999 Q 4.54355859375 0.6629999999999998 4.605058593750001 0.7687499999999998 Q 4.6665585937500005 0.8744999999999998 4.77380859375 0.9344999999999999 Q 4.881058593750001 0.9944999999999999 5.01305859375 0.9944999999999999 Q 5.145058593750001 0.9944999999999999 5.2515585937500004 0.9344999999999999 M 6.682577636718751 0.00749999999999984 L 6.682577636718751 1.0574999999999999 L 6.61957763671875 1.0574999999999999 L 5.904077636718751 0.14549999999999985 L 5.904077636718751 1.0574999999999999 L 5.82757763671875 1.0574999999999999 L 5.82757763671875 0.00749999999999984 L 5.89207763671875 0.00749999999999984 L 6.606077636718751 0.9194999999999999 L 6.606077636718751 0.00749999999999984 L 6.682577636718751 0.00749999999999984 M 7.0516164550781255 0.00749999999999984 L 7.467116455078125 0.00749999999999984 Q 7.630616455078126 0.00749999999999984 7.757366455078126 0.07499999999999984 Q 7.884116455078126 0.14249999999999985 7.954616455078126 0.2617499999999998 Q 8.025116455078125 0.3809999999999999 8.025116455078125 0.5324999999999999 Q 8.025116455078125 0.6839999999999999 7.954616455078126 0.8032499999999998 Q 7.884116455078126 0.9224999999999999 7.757366455078126 0.9899999999999999 Q 7.630616455078126 1.0574999999999999 7.467116455078125 1.0574999999999999 L 7.0516164550781255 1.0574999999999999 L 7.0516164550781255 0.00749999999999984 M 7.461116455078126 0.9884999999999999 Q 7.606616455078125 0.9884999999999999 7.717616455078126 0.9307499999999999 Q 7.828616455078126 0.8729999999999999 7.888616455078125 0.7694999999999999 Q 7.948616455078126 0.6659999999999999 7.948616455078126 0.5324999999999999 Q 7.948616455078126 0.3989999999999999 7.888616455078125 0.2954999999999999 Q 7.828616455078126 0.19199999999999984 7.717616455078126 0.13424999999999987 Q 7.606616455078125 0.0764999999999999 7.461116455078126 0.0764999999999999 L 7.128116455078126 0.0764999999999999 L 7.128116455078126 0.9884999999999999 L 7.461116455078126 0.9884999999999999 M 8.460099609375002 0.9952499999999999 Q 8.335599609375 0.9254999999999999 8.264349609375001 0.8039999999999998 Q 8.193099609375 0.6824999999999999 8.193099609375 0.5324999999999999 Q 8.193099609375 0.38249999999999984 8.264349609375001 0.2609999999999999 Q 8.335599609375 0.13949999999999985 8.460099609375002 0.06974999999999987 Q 8.584599609375001 -2.220446049250313e-16 8.739099609375002 -2.220446049250313e-16 Q 8.893599609375 -2.220446049250313e-16 9.018099609375001 0.06899999999999984 Q 9.142599609375 0.1379999999999999 9.213849609375 0.25949999999999984 Q 9.285099609375001 0.3809999999999999 9.285099609375001 0.5324999999999999 Q 9.285099609375001 0.6839999999999999 9.213849609375 0.8054999999999999 Q 9.142599609375 0.9269999999999998 9.018099609375001 0.9959999999999999 Q 8.893599609375 1.065 8.739099609375002 1.065 Q 8.584599609375001 1.065 8.460099609375002 0.9952499999999999 M 8.977599609375002 0.9344999999999999 Q 9.084099609375 0.8744999999999998 9.145599609375001 0.7687499999999998 Q 9.207099609375001 0.6629999999999998 9.207099609375001 0.5324999999999999 Q 9.207099609375001 0.4019999999999999 9.145599609375001 0.2962499999999999 Q 9.084099609375 0.1904999999999999 8.977599609375002 0.13049999999999984 Q 8.871099609375001 0.0704999999999999 8.739099609375002 0.0704999999999999 Q 8.607099609375 0.0704999999999999 8.499849609375001 0.13049999999999984 Q 8.392599609375 0.1904999999999999 8.331099609375 0.2962499999999999 Q 8.269599609375001 0.4019999999999999 8.269599609375001 0.5324999999999999 Q 8.269599609375001 0.6629999999999998 8.331099609375 0.7687499999999998 Q 8.392599609375 0.8744999999999998 8.499849609375001 0.9344999999999999 Q 8.607099609375 0.9944999999999999 8.739099609375002 0.9944999999999999 Q 8.871099609375001 0.9944999999999999 8.977599609375002 0.9344999999999999" fill="#000000" fill-rule="nonzero"></path></g><g></g><g clip-path="url(#SvgjsClipPath1101)"><g clip-path="url(#SvgjsClipPath10997e75425a-9b17-4b32-8973-2a92f975632e)"><path d=" M 5.648988888057627 -7.52992232680105 L 1.9926412286903923 -3.876689398047569 L 1.9926412286903923 -0.2497586389213371 L 7.375241810435645 -0.2497586389213371 L 7.374895729256339 -3.876689398047568 L 5.648988888057627 -5.600865833349752 L 5.169666454718902 -5.12223556236964 L 6.697268780175313 -3.596017561630452 L 6.697268780175313 -0.9270395068230597 L 2.669922096592112 -0.9270395068230597 L 2.669922096592112 -3.5963636428097585 L 5.648988888057627 -6.571969622482214 L 8.061866870178626 -4.161168127437049 L 8.061866870178626 -0.2497586389213371 L 8.740185981618264 -0.2497586389213371 L 8.740185981618264 -4.441493882674859 Z M 3.7182019887097986 -7.52992232680105 L 0.6273509763284673 -4.441493882674859 L 0.6273509763284673 -0.2497586389213371 L 1.3053240065887994 -0.2497586389213371 L 1.3053240065887994 -4.161168127437049 L 4.197524422048523 -7.050945974641631 Z" fill="#000000" transform="matrix(1,0,0,1,0,0)" fill-rule="nonzero"></path></g></g></g><defs><clipPath id="SvgjsClipPath1101"><path d=" M 0.6275114632245575 -7.52992232680105 h 8.112595725894634 v 7.27992232680105 h -8.112595725894634 Z"></path></clipPath><clipPath id="SvgjsClipPath10997e75425a-9b17-4b32-8973-2a92f975632e"><path d=" M 0.6275114632245575 -7.52992232680105 L 8.740107189119191 -7.52992232680105 L 8.740107189119191 -0.25 L 0.6275114632245575 -0.25 Z"></path></clipPath></defs></svg>